<?xml version="1.0" encoding="UTF-8"?>
<svg id="site_logo" xmlns="http://www.w3.org/2000/svg" viewBox="0 0 292.78 266.09">
  <defs>
    <style>
      .cls-1 {
        fill: #e7e2d4;
      }
    </style>
  </defs>
  <path class="cls-1" d="m232.52,265.89c-.64-.58-.97-.86-1.28-1.17-14.53-14.45-29.04-28.91-43.59-43.33-1.05-1.04-1.51-2.12-1.47-3.6.1-3.08.03-6.17.33-9.5,12.38,12.34,24.76,24.69,37.35,37.24v-48.01c.66-.03,1.14-.07,1.62-.07,16.49,0,32.99-.12,49.48.07,4.96.06,9.34-3.26,9.32-9.36-.05-18.54-.07-37.07-.08-55.61-.02-36.89-.02-73.78-.03-110.68,0-1.82.06-3.64-.1-5.44-.39-4.21-3.61-7.54-7.83-7.68-6.54-.21-13.08-.15-19.62-.15-78.64,0-157.29,0-235.93,0-1.41,0-2.82.02-4.22.13-4.4.37-7.57,3.61-7.77,8.01-.12,2.68-.14,5.36-.14,8.04,0,53.34,0,106.69,0,160.03,0,2.31-.19,4.66.11,6.93.66,5.03,4.07,7.86,9.13,7.88,4.45.01,8.9,0,13.44,0v8.72c-.91,0-1.8.01-2.7,0-4.4-.06-8.84.2-13.2-.27C6.19,207.06.05,199.83.05,190.56c0-28.22.03-56.43.02-84.65C.06,77.23.03,48.56,0,19.89c0-3.52.19-6.98,1.86-10.2C5.12,3.41,10.37.23,17.32.09c8.04-.17,16.08-.04,24.13-.04,77.88,0,155.76,0,233.64,0,8.23,0,14.87,4.89,16.94,12.72.58,2.2.71,4.58.72,6.87.03,29.53,0,59.07,0,88.6,0,26.85.02,53.71.04,80.56,0,8.55-6.1,15.67-14.67,17.06-1.16.19-2.35.28-3.52.28-13.45.02-26.9.01-40.35.01-.49,0-.99,0-1.72,0v59.73Z"/>
  <path class="cls-1" d="m187.4,193.78c-.71-2.66-1.37-5.19-2.07-7.72-3.64-13.2-7.31-26.39-10.89-39.61-.46-1.68-.61-3.49-.62-5.24-.04-8.09.01-16.18.04-24.26,0-.54,0-1.1.13-1.63.29-1.22,1.09-1.99,2.34-2.17,1.2-.18,2.23.3,2.71,1.39.39.88.6,1.92.6,2.88.05,8.09-.03,16.18.07,24.26.03,2.15.28,4.37.85,6.44,4.65,16.96,9.39,33.9,14.1,50.85.05.17.04.35.07.63h-15.06v1.67c0,20.99,0,41.98,0,62.98,0,1.81,0,1.82-1.83,1.82-14.36,0-28.72-.01-43.07.03-1.27,0-1.38-.56-1.38-1.57.01-21.13,0-42.26,0-63.39,0-.44,0-.89,0-1.51h-15.07c.16-.77.24-1.34.39-1.89,4.71-16.95,9.46-33.89,14.11-50.85.51-1.85.65-3.85.67-5.78.04-8.09-.03-16.17-.05-24.26,0-.54.06-1.1.19-1.62.29-1.17,1.08-1.88,2.26-2.07,1.14-.19,2.15.19,2.66,1.22.41.82.74,1.8.74,2.7-.03,9.04.05,18.09-.32,27.12-.13,3.15-1.34,6.27-2.2,9.37-3.63,13.16-7.32,26.3-10.98,39.44-.06.21-.06.43-.1.78h61.73Zm-27.99,5.9c0,.73,0,1.32,0,1.9,0,19.21-.02,38.43-.04,57.64,0,.62-.03,1.04.81,1.03,4.22-.05,8.45-.04,12.67-.11.31,0,.73-.46.89-.81.16-.34.05-.8.05-1.21,0-19.12,0-38.25,0-57.37,0-.35-.06-.69-.1-1.07h-14.27Zm-5.99,60.46v-60.43h-14.01v60.43h14.01Z"/>
  <path class="cls-1" d="m39.1,193.8h61.75c-.7-2.6-1.35-5.09-2.03-7.57-3.7-13.46-7.42-26.92-11.08-40.4-.33-1.21-.41-2.51-.42-3.77-.04-8.13-.03-16.26-.02-24.4,0-.68.03-1.37.14-2.04.24-1.54,1.34-2.53,2.73-2.52,1.31,0,2.54,1.11,2.76,2.56.1.67.09,1.36.09,2.04,0,8.09-.07,16.17.02,24.26.02,2.01.36,4.07.9,6.02,4.67,16.96,9.42,33.89,14.14,50.84.05.17.07.35.13.69-.53.03-1,.09-1.47.09-4.09,0-8.18.05-12.27-.02-1.16-.02-1.55.23-1.54,1.49.06,21.04.06,42.07.08,63.11,0,1.86,0,1.83-1.92,1.83-14.17,0-28.35.01-42.52.02-.53,0-1.06-.07-1.72-.11v-66.3h-15.18c1.59-5.75,3.14-11.34,4.68-16.93,3.37-12.15,6.75-24.29,10.08-36.44.32-1.16.45-2.41.45-3.63.04-8.5.02-16.99.04-25.49,0-.67.04-1.38.23-2.02.38-1.25,1.27-2.01,2.6-2,1.32.01,2.23.75,2.6,2.01.19.64.24,1.34.24,2.02,0,8.59-.03,17.17-.04,25.76,0,3.89-1.49,7.46-2.49,11.11-3.54,12.95-7.18,25.86-10.77,38.79-.07.25-.09.52-.17.99Zm13.5,5.86c0,.63,0,1.12,0,1.61,0,19.22.02,38.44-.01,57.66,0,1.08.36,1.28,1.32,1.27,3.91-.05,7.82-.07,11.72,0,1.11.02,1.45-.23,1.45-1.42,0-18.86.06-37.71.11-56.57,0-.84,0-1.68,0-2.55h-14.6Zm20.25,60.51c4.46,0,8.76-.04,13.07.03,1.14.02,1.34-.41,1.34-1.43,0-19.12.03-38.24.05-57.36,0-.57,0-1.13,0-1.69h-14.46v60.46Z"/>
  <path class="cls-1" d="m113.45,136.14c.43-2.07.86-4.15,1.3-6.22,1.76-8.3,3.57-16.58,5.28-24.89.97-4.72,3.63-8.31,7.1-11.48,7.48-6.83,16.14-11.15,26.27-11.95,12.25-.97,22.79,3.28,31.97,11.26,4.11,3.58,6.98,7.83,7.85,13.31.26,1.66.65,3.29,1,4.93,3.63,16.85,7.35,33.68,10.85,50.55,1,4.82.14,9.36-4.21,12.54-.55.4-1.15.73-1.77,1.01-1.56.7-2.86.27-3.72-1.16-.71-1.19-.5-2.61.95-3.39,3.73-2,3.87-5.18,3.12-8.68-3.53-16.59-7.08-33.18-10.63-49.76-.49-2.31-.97-4.62-1.51-6.91-.54-2.31-1.77-4.23-3.45-5.92-4.55-4.58-9.8-8.05-15.88-10.25-9.23-3.33-18.19-2.41-26.97,1.61-4.09,1.87-7.57,4.61-10.92,7.58-3.2,2.83-4.37,6.51-5.21,10.5-3.16,15.18-6.44,30.35-9.65,45.52-.69,3.24-1.28,6.5-1.91,9.75-.49,2.51.35,4.46,2.48,5.86.42.27.85.54,1.22.87,1.05.94,1.24,2.2.56,3.31-.78,1.27-2.04,1.72-3.37,1.22-3.63-1.37-6.59-5.41-6.46-9.45.09-2.88.44-5.82,1.21-8.58,1.3-4.69,1.12-9.19.02-13.92-2.8-12.1-5.27-24.29-7.82-36.45-.6-2.88-1.79-5.38-3.87-7.5-6.01-6.13-13.04-10.46-21.58-11.86-10.26-1.68-19.52.99-27.86,7.06-1.21.88-2.33,1.88-3.47,2.85-3.13,2.65-4.93,5.97-5.77,10.04-3.66,17.67-7.52,35.31-11.24,52.97-.4,1.88-.37,3.87-.43,5.81-.05,1.54.82,2.64,2.05,3.48.49.33,1,.64,1.44,1.02,1.04.92,1.26,2.21.61,3.31-.7,1.18-1.99,1.74-3.26,1.25-3.64-1.39-5.88-3.99-6.54-7.87-.52-3.03.18-5.95.8-8.89,3.01-14.2,5.99-28.4,9-42.6.81-3.82,1.68-7.62,2.54-11.42.86-3.82,2.7-7.07,5.49-9.84,7.93-7.85,17.41-12.52,28.53-13.18,12.37-.74,22.91,3.81,32.08,12.08,4.91,4.43,6.59,10.05,7.76,16.19,1.56,8.2,3.47,16.32,5.24,24.48.13.61.35,1.21.53,1.81.07,0,.15.01.22.02Z"/>
  <path class="cls-1" d="m69.58,75.44c-10.57.07-19.62-9.16-19.72-20.11-.09-10.89,9.11-20.34,20.08-20.18,11.65.16,19.87,8.89,20.22,19.95.36,11.31-8.92,20.26-20.58,20.34Zm.38-34.56c-7.55-.2-14.41,5.77-14.53,14.65-.1,7.78,6.94,14.3,15.05,14.26,7.53-.04,14.03-6.65,13.96-14.21-.07-8.29-6.45-14.76-14.49-14.7Z"/>
  <path class="cls-1" d="m156.91,75.44c-11.15.18-19.64-8.08-20.52-18.83-.89-10.97,8.03-20.75,19.24-21.46,10.46-.66,20.22,7.97,20.91,18.54.73,11.07-7.12,21.19-19.64,21.75Zm-.38-34.56c-8.27.09-14.62,6.5-14.52,14.65.1,8.18,6.66,14.32,15.25,14.26,7.26-.05,13.84-6.92,13.76-14.36-.09-8.26-6.44-14.63-14.49-14.55Z"/>
</svg>