<?xml version="1.0" encoding="UTF-8"?>
<svg id="Welcome_Text" data-name="Welcome Text" xmlns="http://www.w3.org/2000/svg" viewBox="0 0 506.56 29">
  <path d="m25.33,7.58c0,.32-.16.56-.48.71-.32.16-.69.24-1.12.24h-.14c-.27,3.65-.86,6.86-1.77,9.64-.91,2.78-2.28,4.17-4.11,4.17-1.04,0-2.05-.32-3.01-.97-.96-.65-1.69-1.44-2.19-2.4-.88-1.79-1.56-3.56-2.04-5.3-.23,6.42-1.59,9.62-4.08,9.62-1.75,0-3.22-1.11-4.42-3.33-.61-1.22-1.09-2.98-1.45-5.27-.35-2.29-.53-4.61-.53-6.97S.14,3.87.41,3.03c.18-.52.52-.93,1.02-1.22.5-.29,1.01-.44,1.53-.44.39,0,.72.06,1,.17.28.11.44.26.46.44-.09,1.09-.14,2.86-.14,5.3,0,3.74.2,7.09.59,10.06.4,2.97,1.03,4.45,1.89,4.45.73,0,1.34-1.24,1.84-3.72.5-2.48.79-5.98.88-10.49v-1.12c.02-.5.25-.87.68-1.1.43-.24.95-.36,1.56-.36.45,0,.86.06,1.22.19.36.12.57.29.61.49,0,2.02.2,4.24.61,6.66.41,2.43.95,4.48,1.61,6.17.67,1.69,1.38,2.53,2.12,2.53.95,0,1.72-1.28,2.29-3.84.58-2.56.97-5.68,1.17-9.35-.57-.54-1-1.21-1.31-2.01-.31-.79-.46-1.61-.46-2.45,0-.93.18-1.71.54-2.33.36-.62.93-.94,1.7-.94.61,0,1.08.34,1.41,1.02s.49,1.84.49,3.47l-.07,2.62c.41.16.95.27,1.63.34Z"/>
  <path d="m41.26,13.46c.15.16.22.36.22.61-.54,2.58-1.48,4.72-2.8,6.41-1.33,1.69-3.1,2.53-5.32,2.53-1.22,0-2.38-.27-3.47-.82s-1.97-1.36-2.64-2.45c-.67-1.09-1-2.4-1-3.94s.28-2.87.83-4.13c.56-1.26,1.34-2.27,2.35-3.03,1.01-.76,2.15-1.14,3.42-1.14,1.18,0,2.1.34,2.75,1.02.66.68.99,1.53.99,2.55s-.31,1.96-.93,2.74c-.62.78-1.45,1.18-2.47,1.21-.91.07-1.87-.23-2.89-.88-.05.63-.07,1.12-.07,1.46,0,1.9.35,3.37,1.05,4.39.7,1.02,1.63,1.53,2.79,1.53,1.4,0,2.7-.74,3.88-2.21,1.18-1.47,2.01-3.47,2.48-5.98.09-.07.19-.1.31-.1.2,0,.38.08.53.24Zm-9.72-3.6c-.49.77-.84,1.77-1.07,2.99.79.59,1.48.88,2.07.88.63,0,1.14-.29,1.51-.87s.56-1.24.56-1.99c0-.61-.14-1.13-.41-1.55-.27-.42-.62-.63-1.05-.63-.59,0-1.13.39-1.62,1.16Z"/>
  <path d="m42.58,21.61c-.87-.65-1.47-1.46-1.79-2.43-.16-.57-.28-1.47-.37-2.72-.09-1.25-.14-2.62-.14-4.11,0-2.18.07-4.2.2-6.07.14-1.87.33-3.07.58-3.59.16-.34.43-.59.8-.76.37-.17.79-.26,1.24-.26s.84.07,1.17.22c.33.15.5.36.53.63-.14,1.18-.26,2.73-.37,4.64-.11,1.92-.17,3.76-.17,5.52,0,2.47.15,4.48.44,6.04.29,1.55.78,2.33,1.46,2.33s1.31-.72,1.96-2.16c.65-1.44,1.18-3.29,1.62-5.56.02-.14.08-.24.17-.31.09-.07.18-.1.27-.1.18,0,.33.1.46.31.12.2.18.49.15.85-.61,3.06-1.34,5.24-2.18,6.54-.84,1.3-1.92,1.96-3.23,1.96-1,0-1.93-.32-2.81-.97Z"/>
  <path d="m63.95,13.12c.16,0,.32.1.49.29.17.19.24.41.22.66-.59,2.72-1.65,4.86-3.18,6.41-1.53,1.55-3.36,2.33-5.49,2.33-1.16,0-2.28-.24-3.37-.71s-1.98-1.23-2.69-2.28c-.7-1.04-1.05-2.36-1.05-3.94,0-1.5.31-2.87.92-4.13.61-1.26,1.45-2.26,2.52-3.01,1.06-.75,2.25-1.12,3.57-1.12,1.2,0,2.17.32,2.91.97.74.65,1.1,1.41,1.1,2.3,0,.41-.11.71-.32.92-.22.2-.48.31-.8.31-.23,0-.43-.03-.61-.1-.02-.09-.09-.44-.2-1.04s-.33-1.1-.66-1.51c-.33-.41-.73-.61-1.21-.61-.63,0-1.2.32-1.68.95-.49.64-.87,1.47-1.14,2.52-.27,1.04-.41,2.14-.41,3.3,0,1.63.34,2.98,1.02,4.05.68,1.07,1.68,1.6,2.99,1.6,1.54,0,2.92-.72,4.15-2.16,1.22-1.44,2.09-3.36,2.58-5.76.07-.14.18-.2.34-.2Z"/>
  <path d="m78.42,17.51c-.96,1-2.25,1.59-3.86,1.77-.52,1.31-1.27,2.29-2.26,2.94-.99.65-2.1.97-3.35.97-1.16,0-2.23-.28-3.21-.85-.99-.57-1.79-1.41-2.4-2.53-.61-1.12-.92-2.46-.92-4.03,0-1.36.28-2.57.83-3.64.56-1.06,1.31-1.6,2.26-1.6h.14c.23-.97.69-1.76,1.38-2.36.69-.6,1.61-.9,2.77-.9,1.65,0,2.99.66,4,1.99,1.01,1.33,1.51,3.18,1.51,5.56,0,1.11-.1,2.13-.31,3.06,2.22-.43,3.64-1.95,4.25-4.56.07-.07.15-.1.24-.1.2,0,.39.09.56.27.17.18.25.37.25.58-.29,1.29-.92,2.44-1.89,3.43Zm-5.9,1.8c-1.38-.16-2.6-.59-3.65-1.29-1.05-.7-1.88-1.59-2.46-2.65.02,1.93.32,3.49.9,4.69.58,1.2,1.4,1.8,2.46,1.8,1.25,0,2.16-.85,2.75-2.55Zm-4.81-9.91c-.4.56-.59,1.25-.59,2.09,0,1.04.23,2.03.68,2.98.45.94,1.11,1.72,1.97,2.35.86.62,1.89,1,3.09,1.14.09-.54.14-1.19.14-1.94,0-1.22-.15-2.41-.44-3.55-.29-1.14-.73-2.08-1.29-2.81-.57-.73-1.22-1.09-1.97-1.09-.66,0-1.18.28-1.58.83Z"/>
  <path d="m106.81,13.33c.15.18.21.43.19.75-.63,3.08-1.44,5.25-2.41,6.49s-2.14,1.87-3.5,1.87c-1.5,0-2.57-.5-3.23-1.5-.66-1-.99-2.4-.99-4.22,0-.84.03-1.67.1-2.48.04-1.04.07-1.77.07-2.18,0-.66-.05-1.16-.15-1.5s-.3-.51-.6-.51c-.66,0-1.35.88-2.07,2.64-.73,1.76-1.36,4.31-1.9,7.67-.02.43-.21.76-.56.99-.35.23-.76.34-1.24.34s-.91-.11-1.29-.32c-.39-.22-.59-.48-.61-.8l.03-3.94c0-2.22-.1-4.01-.31-5.35-.2-1.35-.58-2.02-1.12-2.02-.63,0-1.21.73-1.73,2.18-.52,1.45-.95,3.15-1.27,5.08-.33,1.94-.54,3.6-.63,4.98-.16.25-.37.44-.65.58-.27.14-.57.2-.88.2-.45,0-.87-.11-1.26-.32-.39-.22-.67-.5-.85-.87-.39-.79-.66-1.88-.82-3.25-.16-1.37-.24-2.8-.24-4.3,0-1.72.08-3,.24-3.84.11-.45.39-.79.82-1.02.43-.23.9-.34,1.39-.34.39,0,.73.07,1.04.2.31.14.48.32.53.54-.05,1.45-.07,2.63-.07,3.54,0,1.18.02,2.77.07,4.76.29-2.65.83-4.94,1.62-6.87.78-1.93,1.88-2.89,3.28-2.89.68,0,1.34.2,1.97.6.63.4,1.17.97,1.6,1.72.57,1,.87,2.57.92,4.73,1.04-4.26,2.73-6.39,5.07-6.39,1.18,0,2.08.48,2.72,1.44.63.96.95,2.25.95,3.86,0,.27-.02.88-.07,1.84-.05,1.18-.07,2.06-.07,2.65,0,.95.07,1.68.22,2.19.15.51.44.77.87.77.45,0,.93-.33,1.43-1,.5-.67.97-1.59,1.43-2.75.45-1.17.83-2.48,1.12-3.93.02-.09.07-.16.15-.2.08-.04.16-.07.25-.07.16,0,.31.09.46.27Z"/>
  <path d="m117.91,18.72c.11.12.17.28.17.46,0,.43-.25.94-.75,1.51-.5.58-1.19,1.08-2.07,1.5-.88.42-1.9.63-3.06.63s-2.24-.24-3.33-.73c-1.09-.49-1.98-1.26-2.69-2.31-.7-1.05-1.05-2.37-1.05-3.96,0-1.45.28-2.81.85-4.08.57-1.27,1.35-2.29,2.35-3.06,1-.77,2.12-1.16,3.37-1.16s2.14.35,2.81,1.04c.67.69,1,1.54,1,2.53s-.34,1.96-1.02,2.75-1.54,1.19-2.58,1.19c-.88,0-1.79-.31-2.72-.92-.05.63-.07,1.13-.07,1.5,0,1.63.33,2.98,1,4.05s1.67,1.6,3.01,1.6c.79,0,1.57-.24,2.33-.71.76-.48,1.42-1.14,1.99-2.01.2,0,.36.06.48.19Zm-7.43-8.86c-.49.77-.86,1.76-1.1,2.96.73.59,1.41.88,2.04.88s1.14-.29,1.51-.88.56-1.27.56-2.04c0-.59-.12-1.08-.37-1.48-.25-.4-.59-.6-1.02-.6-.59,0-1.13.39-1.62,1.16Z"/>
  <path d="m137.24,13.36c.15.18.21.42.19.71-.45,2.11-.95,3.78-1.5,5.02s-1.18,2.12-1.92,2.67c-.74.54-1.62.82-2.64.82-1.09,0-1.98-.27-2.69-.8-.7-.53-1.21-1.29-1.53-2.26-.43-1.5-.65-3.47-.65-5.92s.11-5.01.34-7.55h-2.31c-.29,0-.52-.06-.68-.19-.16-.12-.24-.27-.24-.42,0-.2.11-.39.34-.54.23-.16.5-.24.82-.24h2.21c.2-1.45.36-2.32.48-2.62.14-.34.39-.59.76-.75.37-.16.8-.24,1.28-.24s.84.07,1.17.2c.33.14.53.32.6.54-.09.68-.19,1.63-.31,2.86h3.03c.25,0,.45.06.61.19.16.12.24.28.24.46s-.1.35-.31.51c-.2.16-.49.24-.85.24h-2.86c-.23,2.95-.34,5.68-.34,8.19,0,4.56.61,6.83,1.84,6.83.75,0,1.5-.73,2.24-2.19s1.35-3.31,1.8-5.56c.09-.16.22-.24.37-.24.18,0,.35.09.49.27Z"/>
  <path d="m148.34,18.99c-.18.12-.43.22-.75.29-.52,1.31-1.27,2.29-2.24,2.94s-2.09.97-3.33.97c-1.16,0-2.23-.28-3.21-.85-.99-.57-1.78-1.41-2.38-2.53-.6-1.12-.9-2.46-.9-4.03,0-1.36.27-2.57.82-3.64.54-1.06,1.3-1.6,2.28-1.6h.14c.23-.97.69-1.76,1.38-2.36.69-.6,1.6-.9,2.74-.9,1.65,0,2.98.66,3.98,1.99,1,1.33,1.5,3.18,1.5,5.56,0,1.18-.12,2.27-.37,3.26.43.09.65.26.65.51,0,.14-.09.27-.27.39Zm-3.83,2.18c.46-.46.82-1.09,1.07-1.89-1.38-.18-2.6-.63-3.64-1.34-1.04-.71-1.86-1.6-2.45-2.67,0,1.93.29,3.51.87,4.74.58,1.24,1.41,1.85,2.5,1.85.63,0,1.18-.23,1.65-.7Zm-3.72-11.76c-.39.56-.58,1.25-.58,2.09,0,1.02.22,1.99.66,2.92.44.93,1.09,1.71,1.96,2.33.86.62,1.89,1.01,3.09,1.17.09-.54.14-1.18.14-1.9,0-1.22-.15-2.41-.44-3.55s-.73-2.08-1.29-2.81c-.57-.73-1.22-1.09-1.97-1.09-.66,0-1.18.28-1.56.83Z"/>
  <path d="m168.79,13.36c.15.18.21.42.19.71-.45,2.11-.95,3.78-1.5,5.02s-1.18,2.12-1.92,2.67c-.74.54-1.62.82-2.64.82-1.09,0-1.98-.27-2.69-.8-.7-.53-1.21-1.29-1.53-2.26-.43-1.5-.65-3.47-.65-5.92s.11-5.01.34-7.55h-2.31c-.29,0-.52-.06-.68-.19-.16-.12-.24-.27-.24-.42,0-.2.11-.39.34-.54.23-.16.5-.24.82-.24h2.21c.2-1.45.36-2.32.48-2.62.14-.34.39-.59.76-.75.37-.16.8-.24,1.28-.24s.84.07,1.17.2c.33.14.53.32.6.54-.09.68-.19,1.63-.31,2.86h3.03c.25,0,.45.06.61.19.16.12.24.28.24.46s-.1.35-.31.51c-.2.16-.49.24-.85.24h-2.86c-.23,2.95-.34,5.68-.34,8.19,0,4.56.61,6.83,1.84,6.83.75,0,1.5-.73,2.24-2.19s1.35-3.31,1.8-5.56c.09-.16.22-.24.37-.24.18,0,.35.09.49.27Z"/>
  <path d="m187.81,13.43c.16.18.24.4.24.65-.59,3.04-1.35,5.23-2.28,6.58-.93,1.35-2.09,2.02-3.47,2.02s-2.5-.46-3.35-1.38-1.27-2.2-1.27-3.86c0-.84.06-1.8.17-2.89.09-1.22.14-2.06.14-2.52,0-.61-.06-1.08-.17-1.41-.11-.33-.32-.49-.61-.49-.57,0-1.18.63-1.84,1.89-.66,1.26-1.27,2.77-1.84,4.54-.57,1.77-1,3.37-1.29,4.79-.29.43-.78.65-1.46.65-.88,0-1.56-.45-2.04-1.36-.34-.66-.6-1.78-.77-3.37-.17-1.59-.25-3.47-.25-5.64,0-1.68.07-3.39.2-5.13.14-1.75.29-2.87.48-3.37.16-.43.45-.75.87-.97.42-.22.88-.32,1.38-.32.36,0,.69.06.97.17.28.11.48.27.59.48-.34,3.26-.51,6.82-.51,10.68,0,1.75.04,3.3.14,4.66.68-2.63,1.5-4.85,2.46-6.65.96-1.8,2.18-2.7,3.66-2.7,1.09,0,2.01.31,2.77.94.76.62,1.14,1.46,1.14,2.5l-.07,1.67c-.07,2.11-.1,3.23-.1,3.37,0,2.83.46,4.25,1.39,4.25.68,0,1.37-.69,2.07-2.07.7-1.38,1.31-3.31,1.84-5.78.09-.11.2-.17.34-.17.16,0,.32.09.48.27Z"/>
  <path d="m198.96,18.72c.11.12.17.28.17.46,0,.43-.25.94-.75,1.51-.5.58-1.19,1.08-2.07,1.5-.88.42-1.9.63-3.06.63s-2.24-.24-3.33-.73c-1.09-.49-1.98-1.26-2.69-2.31-.7-1.05-1.05-2.37-1.05-3.96,0-1.45.28-2.81.85-4.08.57-1.27,1.35-2.29,2.35-3.06,1-.77,2.12-1.16,3.37-1.16s2.14.35,2.81,1.04c.67.69,1,1.54,1,2.53s-.34,1.96-1.02,2.75-1.54,1.19-2.58,1.19c-.88,0-1.79-.31-2.72-.92-.05.63-.07,1.13-.07,1.5,0,1.63.33,2.98,1,4.05s1.67,1.6,3.01,1.6c.79,0,1.57-.24,2.33-.71.76-.48,1.42-1.14,1.99-2.01.2,0,.36.06.48.19Zm-7.43-8.86c-.49.77-.86,1.76-1.1,2.96.73.59,1.41.88,2.04.88s1.14-.29,1.51-.88.56-1.27.56-2.04c0-.59-.12-1.08-.37-1.48-.25-.4-.59-.6-1.02-.6-.59,0-1.13.39-1.62,1.16Z"/>
  <path d="m227.78,17.97c-1.05.9-2.29,1.48-3.72,1.75-.75,1.22-1.84,2.19-3.28,2.89-1.44.7-2.94,1.05-4.5,1.05-1,0-1.9-.15-2.72-.46-.82-.31-1.46-.74-1.94-1.31-.27.23-.61.34-1.02.34s-.79-.09-1.16-.27c-.36-.18-.63-.46-.82-.85-.36-.7-.65-2.11-.87-4.22-.22-2.11-.32-4.41-.32-6.9,0-1.86.04-3.56.14-5.1.09-1.54.22-2.58.37-3.13.14-.48.44-.84.92-1.1.48-.26.97-.39,1.5-.39.39,0,.72.06,1,.19.28.12.46.28.53.46l-.07,1.77c1.99-1.75,4.05-2.62,6.15-2.62,1.38,0,2.49.37,3.32,1.12.83.75,1.24,1.76,1.24,3.03s-.45,2.37-1.36,3.43c-.91,1.07-2.05,1.98-3.43,2.75,2.2.16,3.95.79,5.25,1.89,1.3,1.1,1.96,2.52,1.96,4.27,0,.57-.07,1.09-.2,1.56,2.31-.68,3.71-2.28,4.18-4.79.07-.14.17-.2.31-.2.16,0,.32.1.49.31s.26.42.26.65c-.41,1.7-1.14,3-2.19,3.89Zm-16.03-13.75l-.14,6.9c1.25-.34,2.44-.57,3.57-.68,1.22-.57,2.19-1.38,2.91-2.45s1.07-2.22,1.07-3.47c0-.82-.2-1.48-.6-1.99-.4-.51-.99-.77-1.79-.77-1.52,0-3.2.82-5.03,2.45Zm7.68,8.92c-.88-.96-1.95-1.54-3.2-1.72-1.47.66-3.01,1.18-4.62,1.56v.58c0,2.09.02,3.59.07,4.52.45-.34,1.16-.51,2.11-.51.45,0,.99.04,1.61.12.62.08,1.24.18,1.85.29.18.02.63.09,1.34.2.71.11,1.39.19,2.02.24.09-.34.14-.77.14-1.29,0-1.7-.44-3.03-1.33-4Zm-1.04,8.55c.76-.43,1.35-1.05,1.79-1.87-.73-.07-1.69-.22-2.89-.44-1.34-.25-2.3-.37-2.89-.37-1.11,0-1.67.39-1.67,1.16,0,.59.3,1.1.9,1.53s1.38.65,2.33.65c.86,0,1.67-.22,2.43-.65Z"/>
  <path d="m243.11,13.46c.15.16.22.36.22.61-.54,2.58-1.48,4.72-2.81,6.41-1.33,1.69-3.1,2.53-5.32,2.53-1.22,0-2.38-.27-3.47-.82-1.09-.54-1.97-1.36-2.64-2.45-.67-1.09-1-2.4-1-3.94s.28-2.87.83-4.13c.56-1.26,1.34-2.27,2.35-3.03,1.01-.76,2.15-1.14,3.42-1.14,1.18,0,2.1.34,2.75,1.02.66.68.99,1.53.99,2.55s-.31,1.96-.93,2.74c-.62.78-1.45,1.18-2.46,1.21-.91.07-1.87-.23-2.89-.88-.05.63-.07,1.12-.07,1.46,0,1.9.35,3.37,1.05,4.39.7,1.02,1.63,1.53,2.79,1.53,1.41,0,2.7-.74,3.88-2.21,1.18-1.47,2.01-3.47,2.48-5.98.09-.07.19-.1.31-.1.2,0,.38.08.53.24Zm-9.72-3.6c-.49.77-.84,1.77-1.07,2.99.79.59,1.48.88,2.07.88.63,0,1.14-.29,1.51-.87s.56-1.24.56-1.99c0-.61-.14-1.13-.41-1.55-.27-.42-.62-.63-1.05-.63-.59,0-1.13.39-1.62,1.16Z"/>
  <path d="m256.49,13.12c.16,0,.32.1.49.29.17.19.24.41.22.66-.59,2.72-1.65,4.86-3.18,6.41-1.53,1.55-3.36,2.33-5.49,2.33-1.16,0-2.28-.24-3.37-.71s-1.98-1.23-2.69-2.28c-.7-1.04-1.05-2.36-1.05-3.94,0-1.5.31-2.87.92-4.13.61-1.26,1.45-2.26,2.52-3.01,1.06-.75,2.25-1.12,3.57-1.12,1.2,0,2.17.32,2.91.97s1.11,1.41,1.11,2.3c0,.41-.11.71-.32.92-.22.2-.48.31-.8.31-.23,0-.43-.03-.61-.1-.02-.09-.09-.44-.2-1.04s-.33-1.1-.66-1.51c-.33-.41-.73-.61-1.21-.61-.63,0-1.2.32-1.68.95-.49.64-.87,1.47-1.14,2.52-.27,1.04-.41,2.14-.41,3.3,0,1.63.34,2.98,1.02,4.05.68,1.07,1.68,1.6,2.99,1.6,1.54,0,2.92-.72,4.15-2.16,1.22-1.44,2.08-3.36,2.58-5.76.07-.14.18-.2.34-.2Z"/>
  <path d="m276.04,13.43c.16.18.24.4.24.65-.59,3.04-1.35,5.23-2.28,6.58-.93,1.35-2.09,2.02-3.47,2.02s-2.5-.46-3.35-1.38c-.85-.92-1.28-2.2-1.28-3.86,0-.84.06-1.8.17-2.89.09-1.22.14-2.06.14-2.52,0-.61-.06-1.08-.17-1.41-.11-.33-.32-.49-.61-.49-.57,0-1.18.63-1.84,1.89-.66,1.26-1.27,2.77-1.84,4.54s-1,3.37-1.29,4.79c-.29.43-.78.65-1.46.65-.88,0-1.56-.45-2.04-1.36-.34-.66-.59-1.78-.76-3.37-.17-1.59-.25-3.47-.25-5.64,0-1.68.07-3.39.2-5.13.14-1.75.29-2.87.48-3.37.16-.43.45-.75.87-.97.42-.22.88-.32,1.38-.32.36,0,.69.06.97.17.28.11.48.27.6.48-.34,3.26-.51,6.82-.51,10.68,0,1.75.05,3.3.14,4.66.68-2.63,1.5-4.85,2.46-6.65.96-1.8,2.18-2.7,3.65-2.7,1.09,0,2.01.31,2.77.94.76.62,1.14,1.46,1.14,2.5l-.07,1.67c-.07,2.11-.1,3.23-.1,3.37,0,2.83.46,4.25,1.39,4.25.68,0,1.37-.69,2.07-2.07.7-1.38,1.31-3.31,1.84-5.78.09-.11.2-.17.34-.17.16,0,.32.09.48.27Z"/>
  <path d="m294.77,13.4c.16.16.23.39.2.68-.57,2.83-1.28,4.86-2.14,6.07-.86,1.21-1.93,1.82-3.2,1.82-.98,0-1.89-.33-2.74-.99-.85-.66-1.41-1.39-1.68-2.21-.16-.5-.28-1.05-.37-1.67-.32,1.77-.85,3.15-1.6,4.13-.75.99-1.82,1.48-3.23,1.48-1,0-1.93-.28-2.79-.85s-1.55-1.34-2.07-2.33-.78-2.07-.78-3.25c0-1.41.3-2.73.9-3.98.6-1.25,1.44-2.25,2.52-3.03,1.08-.77,2.31-1.16,3.69-1.16,1.25,0,2.28.37,3.09,1.12.02-1.5.1-2.84.22-4.05.12-1.2.27-2.03.43-2.48.14-.34.37-.59.71-.75.34-.16.74-.24,1.19-.24s.83.07,1.21.2c.37.14.62.31.73.51-.39,4.15-.58,7.77-.58,10.88,0,2.24.15,4,.44,5.25.29,1.26.74,1.89,1.33,1.89.68,0,1.35-.63,2.02-1.9.67-1.27,1.22-3.01,1.65-5.24.07-.11.18-.17.34-.17.18,0,.35.08.51.24Zm-11.47,5.03c.65-1.84,1.06-4.22,1.24-7.14v-.58c-.36-.41-.76-.72-1.19-.93-.43-.22-.87-.32-1.33-.32-1.11,0-2,.67-2.67,2.02-.67,1.35-1,2.94-1,4.78,0,1.45.21,2.63.63,3.55.42.92,1.01,1.38,1.79,1.38,1.04,0,1.89-.92,2.53-2.75Z"/>
  <path d="m308.12,13.46c.15.16.22.36.22.61-.54,2.58-1.48,4.72-2.81,6.41-1.33,1.69-3.1,2.53-5.32,2.53-1.22,0-2.38-.27-3.47-.82-1.09-.54-1.97-1.36-2.63-2.45-.67-1.09-1-2.4-1-3.94s.28-2.87.83-4.13,1.34-2.27,2.35-3.03c1.01-.76,2.15-1.14,3.42-1.14,1.18,0,2.1.34,2.75,1.02.66.68.99,1.53.99,2.55s-.31,1.96-.93,2.74c-.62.78-1.45,1.18-2.46,1.21-.91.07-1.87-.23-2.89-.88-.05.63-.07,1.12-.07,1.46,0,1.9.35,3.37,1.05,4.39.7,1.02,1.63,1.53,2.79,1.53,1.41,0,2.7-.74,3.88-2.21,1.18-1.47,2.01-3.47,2.48-5.98.09-.07.19-.1.31-.1.2,0,.38.08.53.24Zm-9.72-3.6c-.49.77-.84,1.77-1.07,2.99.79.59,1.48.88,2.07.88.63,0,1.14-.29,1.51-.87s.56-1.24.56-1.99c0-.61-.14-1.13-.41-1.55-.27-.42-.62-.63-1.05-.63-.59,0-1.13.39-1.62,1.16Z"/>
  <path d="m307.35,6.24c.14-1.87.33-3.07.58-3.59.14-.32.4-.56.78-.73.38-.17.8-.26,1.26-.26s.81.07,1.14.22c.33.15.51.36.56.63-.36,3.38-.54,6.78-.54,10.2,0,2.52.12,4.68.36,6.49.24,1.81.57,2.87,1,3.16-.05.29-.22.54-.51.73-.29.19-.69.29-1.19.29-1.25,0-2.17-.9-2.75-2.69-.59-1.79-.88-4.64-.88-8.53,0-2.09.07-4.06.2-5.93Z"/>
  <path d="m328.45,23.04c-.74-.33-1.29-.75-1.65-1.26-.36-.51-.54-1.03-.54-1.55,0-.48.15-.84.44-1.1.29-.26.68-.39,1.16-.39.25,0,.49.06.71.17-.05.14-.07.39-.07.75,0,.66.15,1.24.44,1.75.29.51.82.76,1.56.76.93,0,1.82-.47,2.67-1.41.85-.94,1.53-2.07,2.04-3.38.51-1.31.76-2.47.76-3.47,0-.57-.1-1.01-.31-1.34-.2-.33-.5-.49-.88-.49-.29,0-.61.1-.95.29-.34.19-.79.49-1.36.9-1.04.73-1.96,1.27-2.75,1.65-.79.37-1.72.56-2.79.56-1.2,0-2.22-.28-3.04-.85-.83-.57-1.45-1.31-1.87-2.24-.42-.93-.63-1.92-.63-2.96,0-1.54.4-3.03,1.19-4.47.79-1.44,1.94-2.61,3.43-3.5s3.23-1.34,5.2-1.34c1.29,0,2.41.21,3.37.63.95.42,1.68.95,2.18,1.6.5.65.75,1.29.75,1.92,0,.5-.14.92-.43,1.26-.28.34-.66.51-1.14.51-.16,0-.33-.03-.51-.1-.05-.14-.17-.62-.36-1.46-.19-.84-.56-1.55-1.1-2.12s-1.25-.87-2.11-.87c-1.16,0-2.22.47-3.18,1.41-.96.94-1.72,2.11-2.26,3.5s-.82,2.74-.82,4.03c0,1.02.19,1.84.58,2.46.38.62.97.94,1.77.94.5,0,1-.13,1.5-.39.5-.26,1.12-.65,1.87-1.17.88-.61,1.64-1.07,2.26-1.38.62-.31,1.3-.46,2.02-.46,1.16,0,2.09.42,2.8,1.27s1.07,1.92,1.07,3.21-.35,2.58-1.05,3.93c-.7,1.35-1.69,2.47-2.96,3.37-1.27.9-2.71,1.34-4.32,1.34-1.07,0-1.97-.17-2.7-.49Z"/>
  <path d="m356.79,13.12c.16,0,.32.1.49.29.17.19.24.41.22.66-.59,2.72-1.65,4.86-3.18,6.41-1.53,1.55-3.36,2.33-5.49,2.33-1.16,0-2.28-.24-3.37-.71s-1.98-1.23-2.69-2.28c-.7-1.04-1.05-2.36-1.05-3.94,0-1.5.31-2.87.92-4.13.61-1.26,1.45-2.26,2.52-3.01,1.06-.75,2.25-1.12,3.57-1.12,1.2,0,2.17.32,2.91.97s1.11,1.41,1.11,2.3c0,.41-.11.71-.32.92-.22.2-.48.31-.8.31-.23,0-.43-.03-.61-.1-.02-.09-.09-.44-.2-1.04s-.33-1.1-.66-1.51c-.33-.41-.73-.61-1.21-.61-.63,0-1.2.32-1.68.95-.49.64-.87,1.47-1.14,2.52-.27,1.04-.41,2.14-.41,3.3,0,1.63.34,2.98,1.02,4.05.68,1.07,1.68,1.6,2.99,1.6,1.54,0,2.92-.72,4.15-2.16,1.22-1.44,2.08-3.36,2.58-5.76.07-.14.18-.2.34-.2Z"/>
  <path d="m371.02,13.36c.15.18.21.42.19.71-.66,3.22-1.48,5.52-2.46,6.92-.99,1.39-2.25,2.09-3.79,2.09-1.45,0-2.57-.46-3.37-1.39-.79-.93-1.19-2.3-1.19-4.11,0-2.2.45-4.75,1.36-7.65h-.82c-.93,0-1.88.06-2.86.17-.09,1.2-.28,2.53-.58,3.98-.07.14-.17.2-.31.2-.16,0-.33-.11-.51-.34s-.26-.43-.24-.61c.16-1.2.24-2.11.24-2.72v-.37c-.48-.07-.84-.26-1.1-.56-.26-.31-.39-.66-.39-1.07,0-.32.12-.6.36-.85s.56-.37.97-.37c.75,0,1.24.43,1.46,1.29,1.36-.23,2.54-.34,3.54-.34,1.38,0,2.39.24,3.03.71.63.48.9,1.11.78,1.9-.2,1.04-.4,2.26-.58,3.64-.18,1.38-.27,2.58-.27,3.6,0,2.2.48,3.3,1.43,3.3.79,0,1.58-.75,2.36-2.26.78-1.51,1.41-3.47,1.89-5.9.09-.16.21-.24.37-.24.18,0,.34.09.49.27Z"/>
  <path d="m371.94,21.51c-.76-.49-1.29-1.15-1.58-1.99-.34-1-.51-2.43-.51-4.28,0-1.02.05-2.01.15-2.98.1-.96.2-1.63.29-1.99.14-.41.41-.71.83-.92.42-.2.88-.31,1.38-.31.45,0,.85.08,1.19.24.34.16.52.36.54.61-.09.73-.18,1.63-.25,2.7-.08,1.08-.12,2.1-.12,3.08,0,3.4.48,5.1,1.43,5.1.68,0,1.39-.67,2.12-2.01.74-1.34,1.33-3.15,1.79-5.44.07-.18.2-.27.41-.27.16,0,.31.09.46.27.15.18.21.43.19.75-.59,2.95-1.37,5.04-2.33,6.29-.96,1.25-2.1,1.87-3.42,1.87-.95,0-1.81-.24-2.57-.73Zm-.83-15.57c-.36-.19-.54-.49-.54-.9s.18-.71.54-.92c.36-.2.8-.31,1.33-.31s1.01.11,1.41.32.6.52.6.9c0,.36-.2.65-.6.87s-.87.32-1.41.32-.96-.1-1.33-.29Z"/>
  <path d="m397.81,13.43c.17.18.25.4.25.65-.41,1.95-1.23,3.31-2.47,4.1-1.24.78-2.66,1.17-4.27,1.17h-.34c-.75.93-1.59,1.67-2.53,2.23-.94.56-1.83.83-2.67.83-.54,0-1.08-.11-1.62-.34s-.98-.53-1.34-.92c.16,2.9.43,5.22.82,6.97-.02.2-.27.4-.75.6-.48.19-.96.29-1.46.29-.84,0-1.37-.27-1.6-.82-.36-.91-.64-2.29-.83-4.15s-.29-3.85-.29-5.98c0-1.9.07-3.68.22-5.34.15-1.65.37-3,.66-4.05.14-.39.4-.67.8-.87.4-.19.83-.29,1.31-.29.43,0,.81.06,1.14.17.33.11.49.25.49.41-.32,1.52-.51,3.72-.58,6.6.66-2.11,1.48-3.76,2.47-4.95.99-1.19,2.12-1.79,3.42-1.79.77,0,1.51.22,2.21.66.7.44,1.28,1.07,1.73,1.87.45.8.68,1.73.68,2.77,0,1.65-.46,3.26-1.39,4.83,2.86-.23,4.57-1.81,5.13-4.76.07-.11.16-.17.27-.17.18,0,.36.09.53.27Zm-12.48-1.67c-.92,1.59-1.68,3.49-2.29,5.71.27-.07.6-.1.99-.1.61,0,1.55.1,2.82.31l1.22.17c.36-.91.65-1.89.85-2.94s.31-2.01.31-2.87c0-.82-.11-1.46-.32-1.94-.22-.48-.54-.71-.97-.71-.82,0-1.68.79-2.6,2.38Zm2.23,7.21c-1.5-.23-2.46-.34-2.89-.34-.91,0-1.36.28-1.36.85,0,.43.22.82.65,1.17.43.35.85.53,1.26.53.82,0,1.6-.74,2.35-2.21Z"/>
  <path d="m404.22,4.66c.23,0,.42.06.58.19.16.12.24.28.24.46,0,.2-.1.38-.29.53-.19.15-.47.22-.83.22h-2.89c-.14,2.81-.2,5.03-.2,6.66,0,2.54.12,4.71.36,6.51.24,1.8.57,2.85,1,3.15-.02.29-.18.54-.48.73-.29.19-.69.29-1.19.29-1.27,0-2.21-.9-2.81-2.7-.6-1.8-.9-4.64-.9-8.52,0-1.86.08-3.9.24-6.12h-2.24c-.29,0-.52-.06-.68-.19-.16-.12-.24-.27-.24-.42,0-.2.11-.39.34-.54.23-.16.5-.24.82-.24h2.14c.14-1.34.29-2.21.48-2.62.14-.32.4-.56.78-.73.38-.17.8-.25,1.26-.25s.81.07,1.14.22c.33.15.51.35.56.59-.07.41-.14,1.08-.2,2.01l-.07.78h3.09Z"/>
  <path d="m432.32,2.43c.17.15.25.33.25.56,0,.63-.4,1.09-1.19,1.38-.79.28-1.78.43-2.96.43-1.09,0-2.31-.18-3.67-.54-.07,2-.1,4.38-.1,7.14,0,2.27.03,4.47.08,6.6.06,2.13.15,3.67.29,4.62-.07.29-.28.55-.63.76-.35.22-.74.32-1.17.32-.86,0-1.46-.33-1.8-.99-.34-.66-.59-2.19-.75-4.61-.16-2.41-.24-5.12-.24-8.11s.08-5.38.24-6.9c-.98-.2-1.84-.31-2.58-.31-1.52,0-2.61.32-3.28.95-.67.63-1.05,1.24-1.16,1.82s-.15,1.22-.15,1.92c-.2.16-.49.24-.85.24-.41,0-.74-.16-1-.48-.26-.32-.39-.74-.39-1.26,0-.66.24-1.34.71-2.06.48-.71,1.21-1.31,2.21-1.79,1-.48,2.25-.71,3.77-.71.91,0,1.89.1,2.96.31l.03-.07c.14-.43.42-.76.87-.99.44-.23.92-.34,1.45-.34.38,0,.73.06,1.04.17.31.11.5.26.6.44l-.1,1.87c1.38.41,2.57.61,3.57.61.93,0,1.64-.11,2.14-.32.5-.22.91-.52,1.22-.9.23,0,.42.07.59.22Z"/>
  <path d="m444.08,13.46c.15.16.22.36.22.61-.54,2.58-1.48,4.72-2.81,6.41-1.33,1.69-3.1,2.53-5.32,2.53-1.22,0-2.38-.27-3.47-.82-1.09-.54-1.97-1.36-2.63-2.45-.67-1.09-1-2.4-1-3.94s.28-2.87.83-4.13,1.34-2.27,2.35-3.03c1.01-.76,2.15-1.14,3.42-1.14,1.18,0,2.1.34,2.75,1.02.66.68.99,1.53.99,2.55s-.31,1.96-.93,2.74c-.62.78-1.45,1.18-2.46,1.21-.91.07-1.87-.23-2.89-.88-.05.63-.07,1.12-.07,1.46,0,1.9.35,3.37,1.05,4.39.7,1.02,1.63,1.53,2.79,1.53,1.41,0,2.7-.74,3.88-2.21,1.18-1.47,2.01-3.47,2.48-5.98.09-.07.19-.1.31-.1.2,0,.38.08.53.24Zm-9.72-3.6c-.49.77-.84,1.77-1.07,2.99.79.59,1.48.88,2.07.88.63,0,1.14-.29,1.51-.87s.56-1.24.56-1.99c0-.61-.14-1.13-.41-1.55-.27-.42-.62-.63-1.05-.63-.59,0-1.13.39-1.62,1.16Z"/>
  <path d="m457.44,13.38c.17.22.23.45.19.7-.68,2.86-2.27,4.34-4.76,4.45-.23,1.36-.88,2.5-1.96,3.42-1.08.92-2.38,1.38-3.89,1.38-1.09,0-2.09-.27-3.01-.8-.92-.53-1.64-1.22-2.18-2.07s-.8-1.73-.8-2.63c0-.84.19-1.44.58-1.8.39-.36.93-.54,1.63-.54.86,0,2.23.27,4.11.82.2.05.69.17,1.46.37-.27-1.18-.74-2.44-1.39-3.79-.66-1.35-1.43-2.68-2.31-4-.05.98-.32,2.71-.82,5.2-.05.11-.15.17-.31.17s-.33-.11-.51-.34-.26-.42-.24-.58c.18-.95.32-1.93.42-2.94.1-1.01.13-1.63.08-1.85-.07-.11-.1-.23-.1-.34,0-.39.26-.7.78-.94.52-.24,1.11-.36,1.77-.36s1.22.12,1.7.36.76.58.85,1.04c1.2,1.31,2.18,2.79,2.92,4.42.75,1.63,1.17,3.11,1.26,4.42,1.99-.23,3.21-1.5,3.64-3.81.07-.18.17-.27.31-.27.2,0,.39.11.56.32Zm-9.03,7.96c.48-.55.71-1.35.71-2.4,0-.18-.02-.5-.07-.95l-1.46-.41c-1.47-.45-2.52-.68-3.13-.68-.91,0-1.36.44-1.36,1.33,0,.63.17,1.26.49,1.87.33.61.77,1.11,1.31,1.5.54.39,1.13.58,1.77.58.68,0,1.26-.28,1.73-.83Z"/>
  <path d="m467.07,13.36c.15.18.21.42.19.71-.45,2.11-.95,3.78-1.5,5.02s-1.18,2.12-1.92,2.67c-.74.54-1.62.82-2.63.82-1.09,0-1.98-.27-2.69-.8s-1.21-1.29-1.53-2.26c-.43-1.5-.65-3.47-.65-5.92s.11-5.01.34-7.55h-2.31c-.29,0-.52-.06-.68-.19-.16-.12-.24-.27-.24-.42,0-.2.11-.39.34-.54.23-.16.5-.24.82-.24h2.21c.2-1.45.36-2.32.48-2.62.14-.34.39-.59.76-.75.37-.16.8-.24,1.28-.24s.84.07,1.17.2c.33.14.53.32.59.54-.09.68-.19,1.63-.31,2.86h3.03c.25,0,.45.06.61.19.16.12.24.28.24.46s-.1.35-.31.51c-.2.16-.49.24-.85.24h-2.86c-.23,2.95-.34,5.68-.34,8.19,0,4.56.61,6.83,1.84,6.83.75,0,1.5-.73,2.24-2.19s1.35-3.31,1.8-5.56c.09-.16.21-.24.37-.24.18,0,.34.09.49.27Z"/>
  <path d="m480.39,13.46c.15.16.22.36.22.61-.54,2.58-1.48,4.72-2.81,6.41-1.33,1.69-3.1,2.53-5.32,2.53-1.22,0-2.38-.27-3.47-.82-1.09-.54-1.97-1.36-2.63-2.45-.67-1.09-1-2.4-1-3.94s.28-2.87.83-4.13,1.34-2.27,2.35-3.03c1.01-.76,2.15-1.14,3.42-1.14,1.18,0,2.1.34,2.75,1.02.66.68.99,1.53.99,2.55s-.31,1.96-.93,2.74c-.62.78-1.45,1.18-2.46,1.21-.91.07-1.87-.23-2.89-.88-.05.63-.07,1.12-.07,1.46,0,1.9.35,3.37,1.05,4.39.7,1.02,1.63,1.53,2.79,1.53,1.41,0,2.7-.74,3.88-2.21,1.18-1.47,2.01-3.47,2.48-5.98.09-.07.19-.1.31-.1.2,0,.38.08.53.24Zm-9.72-3.6c-.49.77-.84,1.77-1.07,2.99.79.59,1.48.88,2.07.88.63,0,1.14-.29,1.51-.87s.56-1.24.56-1.99c0-.61-.14-1.13-.41-1.55-.27-.42-.62-.63-1.05-.63-.59,0-1.13.39-1.62,1.16Z"/>
  <path d="m491.26,20.4c.14.14.2.33.2.58,0,.52-.29,1.01-.88,1.46-.59.45-1.44.68-2.55.68-1.45,0-2.57-.47-3.35-1.41-.78-.94-1.17-2.32-1.17-4.13,0-2.15.45-4.7,1.36-7.65h-.85c-.91,0-1.85.06-2.82.17-.02.7-.22,2.03-.58,3.98-.02.14-.11.2-.27.2-.18,0-.36-.11-.54-.34s-.26-.43-.24-.61c.16-1.04.24-1.95.24-2.72v-.37c-.48-.07-.84-.26-1.1-.56-.26-.31-.39-.66-.39-1.07,0-.32.12-.6.36-.85s.56-.37.97-.37c.75,0,1.24.43,1.46,1.29,1.36-.23,2.54-.34,3.54-.34,1.36,0,2.36.24,3.01.71.65.48.91,1.11.8,1.9-.2.95-.4,2.15-.6,3.59-.19,1.44-.29,2.66-.29,3.66,0,2.2.48,3.3,1.43,3.3.32,0,.61-.1.88-.31s.55-.53.85-.99c.23,0,.41.07.54.2Z"/>
  <path d="m506.01,7.41c-.18,3.06-.29,5.67-.34,7.82-.02.27-.14.5-.36.68-.22.18-.47.27-.77.27-.61,0-1.08-.31-1.39-.92-.32-.63-.57-2.01-.75-4.13-.18-2.12-.27-4.2-.27-6.24,0-1.72.07-2.9.2-3.54.09-.45.36-.79.8-1.02.44-.23.95-.34,1.51-.34.43,0,.83.07,1.19.2.36.14.6.33.71.58-.18,1.36-.36,3.57-.54,6.63Zm-.14,11.53c.38.39.58.84.58,1.36s-.18,1.03-.54,1.46c-.36.43-.9.65-1.6.65-.61,0-1.08-.21-1.39-.63s-.48-.88-.48-1.38c0-.57.19-1.05.56-1.45.37-.4.82-.59,1.34-.59.63,0,1.14.19,1.53.58Z"/>
</svg>